<svg width="290" height="246" viewBox="0 0 290 246" fill="none" xmlns="http://www.w3.org/2000/svg">
<path d="M36.0686 211.355C31.81 234.452 24.8762 246 15.2914 246C5.0808 246 -0.0122503 237.495 2.21256e-05 220.523C0.0368393 182.184 22.3358 146.361 23.6367 146.042C24.5694 146.042 21.5626 155.049 21.2681 155.945C13.3892 179.827 9.44976 196.567 9.43749 206.152C9.42522 219.197 12.9474 225.726 20.0163 225.726C29.5397 225.726 37.7867 199.07 36.0563 211.355H36.0686Z" fill="#252C32"/>
<path d="M288.821 33.9254C285.962 22.4139 278.058 13.2465 265.087 6.36165C231.325 -11.691 217.813 10.0434 245.88 54.2853C238.664 61.2192 234.406 66.6804 233.08 70.6076C234.209 75.0993 239.854 81.8123 250.077 90.6975C255.649 73.7248 294.381 56.1998 288.834 33.9254H288.821ZM254.545 46.7255C249.648 38.5644 245.978 23.1012 255.244 20.8063C258.68 19.9472 269.505 21.9108 270.523 25.8747C271.542 30.0228 266.216 36.9567 254.545 46.7255Z" fill="url(#paint0_linear_94_461)"/>
<path d="M228.404 134.21C217.488 98.7645 166.48 109.303 144.872 102.433L144.078 103.621C155.845 114.882 224.246 106.823 224.198 149.476C224.166 193.301 144.487 239.582 104.635 202.563C88.446 187.538 83.9993 163.065 102.388 134.282C135.409 82.6473 176.657 84.0279 187.148 61.4092C190.639 54.2014 192.726 50.4048 198.57 39.6172L197.582 38.63C186.249 47.1461 174.025 55.3492 160.476 58.5758C135.626 64.5235 102.268 50.9426 102.284 32.6422C102.284 31.1573 104.338 26.4216 113.834 23.6123C128.001 19.4305 155.708 25.9481 159.465 40.155C160.452 43.1087 161.094 45.2358 161.415 46.5361C162.177 49.7467 164.056 48.5186 164.216 47.5313C164.377 46.5601 164.465 45.7735 164.176 41.3349C162.956 23.7649 167.347 19.6874 162.386 12.6883C154.841 2.04512 133.868 -2.84302 119.268 1.69196C111.795 4.02767 106.425 8.73924 102.316 15.329C97.6443 22.8017 93.7033 35.7565 92.5074 40.9737C92.4191 41.359 92.3468 41.7362 92.2585 42.1054C87.7797 63.9456 100.052 76.788 121.499 83.747V84.3329C75.5875 126.416 77.3613 185.066 85.5083 208.045C109.724 276.255 206.893 245.032 227.778 171.437C231.992 156.507 231.125 143.023 228.396 134.202L228.404 134.21Z" fill="url(#paint1_linear_94_461)"/>
<defs>
<linearGradient id="paint0_linear_94_461" x1="260.048" y1="0" x2="260.048" y2="90.6975" gradientUnits="userSpaceOnUse">
<stop stop-color="#252C32"/>
<stop offset="0.148" stop-color="#252C32"/>
<stop offset="1" stop-color="#AD9E68"/>
</linearGradient>
<linearGradient id="paint1_linear_94_461" x1="155.845" y1="0" x2="155.845" y2="245.868" gradientUnits="userSpaceOnUse">
<stop stop-color="#AD9E68"/>
<stop offset="0.0001" stop-color="#252C32"/>
<stop offset="1" stop-color="#AD9E68"/>
</linearGradient>
</defs>
</svg>
