<svg width="226" height="114" viewBox="0 0 226 114" fill="none" xmlns="http://www.w3.org/2000/svg">
<path d="M97.9374 88.5415C132.77 80.1867 159.586 71.4011 178.402 62.2073C161.16 50.3949 153.946 40.0902 156.774 31.3046C160.184 20.6938 169.599 12.2256 184.989 5.88864C226.73 -11.2858 239.978 10.7972 207.711 50.2135C216.28 56.6412 221.338 61.6745 222.868 65.3248C221.527 69.4739 214.794 75.6408 202.639 83.8483C201.094 80.198 196.255 75.21 188.108 68.8617C127.917 108.301 40.7335 111.237 12.4157 113.629C-4.78194 114.978 -2.98932 112.495 10.8999 108.845C39.7715 102.134 68.7743 95.3773 97.9082 88.5415H97.9374ZM178.504 23.9133C177.28 27.7337 183.576 34.15 197.421 43.185C200.89 38.7525 202.857 34.0253 203.338 29.0147C204.067 19.5602 197.392 17.6784 186.214 19.991C181.608 20.9432 179.029 22.2469 178.504 23.902V23.9133Z" fill="#AD9E68" fill-opacity="0.2"/>
</svg>
