<svg width="247" height="339" viewBox="0 0 247 339" fill="none" xmlns="http://www.w3.org/2000/svg">
<path d="M246.342 162.217C244.012 154.921 237.572 149.111 227.002 144.747C199.492 133.305 188.482 147.081 211.352 175.122C205.472 179.516 202.002 182.978 200.922 185.467C201.842 188.314 206.442 192.568 214.772 198.2C219.312 187.442 250.872 176.335 246.352 162.217H246.342ZM218.412 170.33C214.422 165.158 211.432 155.357 218.982 153.902C221.782 153.358 230.602 154.602 231.432 157.115C232.262 159.744 227.922 164.139 218.412 170.33Z" fill="#AD9E68" fill-opacity="0.4"/>
<path d="M29.39 235.004C25.92 249.643 20.27 256.962 12.46 256.962C4.14003 256.962 -0.00998197 251.572 1.80288e-05 240.814C0.030018 216.515 18.2 193.81 19.26 193.608C20.02 193.608 17.57 199.317 17.33 199.885C10.91 215.021 7.70002 225.631 7.69002 231.706C7.68002 239.974 10.55 244.112 16.31 244.112C24.07 244.112 30.79 227.218 29.38 235.004H29.39Z" fill="#AD9E68" fill-opacity="0.4"/>
<path d="M98.5147 54.2439C83.1547 143.935 78.6847 243.443 91.1547 338.175L89.9647 338.082C79.0047 314.055 70.6047 293.395 68.0547 268.917C54.9547 145.958 70.0647 34.4404 82.2647 0.705891L83.2247 0.93924C100.225 46.17 101.445 38.8351 98.5147 54.2439Z" fill="#AD9E68" fill-opacity="0.4"/>
</svg>
